<mxfile host="app.diagrams.net" modified="2024-01-12T21:01:42.118Z" agent="Mozilla/5.0 (Windows NT 10.0; Win64; x64) AppleWebKit/537.36 (KHTML, like Gecko) Chrome/120.0.0.0 Safari/537.36" etag="i9ysPKuVDI_Dkr1jaKfP" version="22.1.18" type="github">
  <diagram id="C5RBs43oDa-KdzZeNtuy" name="Page-1">
    <mxGraphModel dx="897" dy="588" grid="1" gridSize="10" guides="1" tooltips="1" connect="1" arrows="1" fold="1" page="1" pageScale="1" pageWidth="827" pageHeight="1169" math="0" shadow="0">
      <root>
        <mxCell id="WIyWlLk6GJQsqaUBKTNV-0" />
        <mxCell id="WIyWlLk6GJQsqaUBKTNV-1" parent="WIyWlLk6GJQsqaUBKTNV-0" />
        <mxCell id="uEfovSPP1sDSv2XOrUWZ-0" style="edgeStyle=orthogonalEdgeStyle;rounded=0;orthogonalLoop=1;jettySize=auto;html=1;exitX=0.5;exitY=1;exitDx=0;exitDy=0;entryX=0.5;entryY=0;entryDx=0;entryDy=0;" edge="1" parent="WIyWlLk6GJQsqaUBKTNV-1" source="uEfovSPP1sDSv2XOrUWZ-1" target="uEfovSPP1sDSv2XOrUWZ-3">
          <mxGeometry relative="1" as="geometry" />
        </mxCell>
        <mxCell id="uEfovSPP1sDSv2XOrUWZ-1" value="CREAR CLASS eliminarTerminales" style="rounded=1;whiteSpace=wrap;html=1;fontSize=12;glass=0;strokeWidth=1;shadow=0;" vertex="1" parent="WIyWlLk6GJQsqaUBKTNV-1">
          <mxGeometry x="67.5" width="120" height="40" as="geometry" />
        </mxCell>
        <mxCell id="uEfovSPP1sDSv2XOrUWZ-2" style="edgeStyle=orthogonalEdgeStyle;rounded=0;orthogonalLoop=1;jettySize=auto;html=1;exitX=0.5;exitY=1;exitDx=0;exitDy=0;entryX=0.5;entryY=0;entryDx=0;entryDy=0;" edge="1" parent="WIyWlLk6GJQsqaUBKTNV-1" source="uEfovSPP1sDSv2XOrUWZ-3" target="uEfovSPP1sDSv2XOrUWZ-5">
          <mxGeometry relative="1" as="geometry" />
        </mxCell>
        <mxCell id="uEfovSPP1sDSv2XOrUWZ-3" value="CREAR METODO POST Eliminar_Terminales" style="rounded=1;whiteSpace=wrap;html=1;" vertex="1" parent="WIyWlLk6GJQsqaUBKTNV-1">
          <mxGeometry x="62.5" y="70" width="130" height="50" as="geometry" />
        </mxCell>
        <mxCell id="uEfovSPP1sDSv2XOrUWZ-4" value="" style="edgeStyle=orthogonalEdgeStyle;rounded=0;orthogonalLoop=1;jettySize=auto;html=1;" edge="1" parent="WIyWlLk6GJQsqaUBKTNV-1" source="uEfovSPP1sDSv2XOrUWZ-5" target="uEfovSPP1sDSv2XOrUWZ-8">
          <mxGeometry relative="1" as="geometry" />
        </mxCell>
        <mxCell id="uEfovSPP1sDSv2XOrUWZ-5" value="CREAR METODO EliminarTerminal EN Metodos.cs" style="rounded=1;whiteSpace=wrap;html=1;" vertex="1" parent="WIyWlLk6GJQsqaUBKTNV-1">
          <mxGeometry x="62.5" y="150" width="130" height="50" as="geometry" />
        </mxCell>
        <mxCell id="uEfovSPP1sDSv2XOrUWZ-6" value="INICIO" style="strokeWidth=2;html=1;shape=mxgraph.flowchart.start_2;whiteSpace=wrap;" vertex="1" parent="WIyWlLk6GJQsqaUBKTNV-1">
          <mxGeometry x="102.5" y="230" width="50" height="50" as="geometry" />
        </mxCell>
        <mxCell id="uEfovSPP1sDSv2XOrUWZ-7" value="" style="edgeStyle=orthogonalEdgeStyle;rounded=0;orthogonalLoop=1;jettySize=auto;html=1;" edge="1" parent="WIyWlLk6GJQsqaUBKTNV-1" source="uEfovSPP1sDSv2XOrUWZ-8" target="uEfovSPP1sDSv2XOrUWZ-10">
          <mxGeometry relative="1" as="geometry" />
        </mxCell>
        <mxCell id="uEfovSPP1sDSv2XOrUWZ-8" value="res = &quot;&quot;,&lt;br&gt;version = 0" style="rounded=0;whiteSpace=wrap;html=1;" vertex="1" parent="WIyWlLk6GJQsqaUBKTNV-1">
          <mxGeometry x="77.5" y="300" width="100" height="30" as="geometry" />
        </mxCell>
        <mxCell id="uEfovSPP1sDSv2XOrUWZ-9" style="edgeStyle=orthogonalEdgeStyle;rounded=0;orthogonalLoop=1;jettySize=auto;html=1;exitX=0.5;exitY=1;exitDx=0;exitDy=0;exitPerimeter=0;entryX=0.5;entryY=0;entryDx=0;entryDy=0;" edge="1" parent="WIyWlLk6GJQsqaUBKTNV-1" source="uEfovSPP1sDSv2XOrUWZ-10">
          <mxGeometry relative="1" as="geometry">
            <mxPoint x="127.5" y="500" as="targetPoint" />
          </mxGeometry>
        </mxCell>
        <mxCell id="uEfovSPP1sDSv2XOrUWZ-10" value="try catch" style="strokeWidth=2;html=1;shape=mxgraph.flowchart.decision;whiteSpace=wrap;" vertex="1" parent="WIyWlLk6GJQsqaUBKTNV-1">
          <mxGeometry x="77.5" y="370" width="100" height="100" as="geometry" />
        </mxCell>
        <mxCell id="uEfovSPP1sDSv2XOrUWZ-11" value="return res = ex.Message" style="strokeWidth=2;html=1;shape=mxgraph.flowchart.start_1;whiteSpace=wrap;" vertex="1" parent="WIyWlLk6GJQsqaUBKTNV-1">
          <mxGeometry x="520" y="390" width="90" height="60" as="geometry" />
        </mxCell>
        <mxCell id="uEfovSPP1sDSv2XOrUWZ-12" style="edgeStyle=orthogonalEdgeStyle;rounded=0;orthogonalLoop=1;jettySize=auto;html=1;exitX=1;exitY=0.5;exitDx=0;exitDy=0;exitPerimeter=0;entryX=0;entryY=0.5;entryDx=0;entryDy=0;entryPerimeter=0;" edge="1" parent="WIyWlLk6GJQsqaUBKTNV-1" source="uEfovSPP1sDSv2XOrUWZ-10" target="uEfovSPP1sDSv2XOrUWZ-11">
          <mxGeometry relative="1" as="geometry" />
        </mxCell>
        <mxCell id="uEfovSPP1sDSv2XOrUWZ-13" value="CREAR LISTAS &#39;queryList&#39; Y &#39;listParemeter&#39;" style="shape=parallelogram;html=1;strokeWidth=2;perimeter=parallelogramPerimeter;whiteSpace=wrap;rounded=1;arcSize=12;size=0.23;" vertex="1" parent="WIyWlLk6GJQsqaUBKTNV-1">
          <mxGeometry x="58.75" y="500" width="140" height="60" as="geometry" />
        </mxCell>
        <mxCell id="uEfovSPP1sDSv2XOrUWZ-14" style="edgeStyle=orthogonalEdgeStyle;rounded=0;orthogonalLoop=1;jettySize=auto;html=1;exitX=0.5;exitY=1;exitDx=0;exitDy=0;entryX=0.5;entryY=0;entryDx=0;entryDy=0;" edge="1" parent="WIyWlLk6GJQsqaUBKTNV-1" source="uEfovSPP1sDSv2XOrUWZ-15">
          <mxGeometry relative="1" as="geometry">
            <mxPoint x="129" y="680" as="targetPoint" />
          </mxGeometry>
        </mxCell>
        <mxCell id="uEfovSPP1sDSv2XOrUWZ-15" value="DELETE FROM sales_terminal" style="shape=internalStorage;whiteSpace=wrap;html=1;dx=15;dy=15;rounded=1;arcSize=8;strokeWidth=2;" vertex="1" parent="WIyWlLk6GJQsqaUBKTNV-1">
          <mxGeometry x="71.5" y="580" width="142.5" height="70" as="geometry" />
        </mxCell>
        <mxCell id="uEfovSPP1sDSv2XOrUWZ-16" value="LLAMA A LA FUNCION &#39;mandaQryBool&#39; CON LA CONSULTA" style="rounded=1;whiteSpace=wrap;html=1;absoluteArcSize=1;arcSize=14;strokeWidth=2;" vertex="1" parent="WIyWlLk6GJQsqaUBKTNV-1">
          <mxGeometry x="44" y="680" width="170" height="100" as="geometry" />
        </mxCell>
        <mxCell id="uEfovSPP1sDSv2XOrUWZ-17" value="mandaQryInsert" style="strokeWidth=2;html=1;shape=mxgraph.flowchart.decision;whiteSpace=wrap;" vertex="1" parent="WIyWlLk6GJQsqaUBKTNV-1">
          <mxGeometry x="69" y="800" width="125" height="100" as="geometry" />
        </mxCell>
        <mxCell id="uEfovSPP1sDSv2XOrUWZ-18" value="TRUE" style="strokeWidth=2;html=1;shape=mxgraph.flowchart.display;whiteSpace=wrap;" vertex="1" parent="WIyWlLk6GJQsqaUBKTNV-1">
          <mxGeometry x="314" y="860" width="100" height="60" as="geometry" />
        </mxCell>
        <mxCell id="uEfovSPP1sDSv2XOrUWZ-19" style="edgeStyle=orthogonalEdgeStyle;rounded=0;orthogonalLoop=1;jettySize=auto;html=1;exitX=1;exitY=0.5;exitDx=0;exitDy=0;exitPerimeter=0;entryX=0.5;entryY=1;entryDx=0;entryDy=0;entryPerimeter=0;" edge="1" parent="WIyWlLk6GJQsqaUBKTNV-1" source="uEfovSPP1sDSv2XOrUWZ-17" target="uEfovSPP1sDSv2XOrUWZ-11">
          <mxGeometry relative="1" as="geometry" />
        </mxCell>
        <mxCell id="uEfovSPP1sDSv2XOrUWZ-20" style="edgeStyle=orthogonalEdgeStyle;rounded=0;orthogonalLoop=1;jettySize=auto;html=1;exitX=0.5;exitY=1;exitDx=0;exitDy=0;exitPerimeter=0;entryX=0;entryY=0.5;entryDx=0;entryDy=0;entryPerimeter=0;" edge="1" parent="WIyWlLk6GJQsqaUBKTNV-1" source="uEfovSPP1sDSv2XOrUWZ-17" target="uEfovSPP1sDSv2XOrUWZ-18">
          <mxGeometry relative="1" as="geometry">
            <mxPoint x="244.00000000000023" y="730.0000000000002" as="targetPoint" />
            <Array as="points">
              <mxPoint x="132" y="920" />
              <mxPoint x="214" y="920" />
              <mxPoint x="214" y="890" />
            </Array>
          </mxGeometry>
        </mxCell>
        <mxCell id="uEfovSPP1sDSv2XOrUWZ-21" style="edgeStyle=orthogonalEdgeStyle;rounded=0;orthogonalLoop=1;jettySize=auto;html=1;exitX=0.5;exitY=1;exitDx=0;exitDy=0;entryX=0.5;entryY=0;entryDx=0;entryDy=0;entryPerimeter=0;" edge="1" parent="WIyWlLk6GJQsqaUBKTNV-1" source="uEfovSPP1sDSv2XOrUWZ-16" target="uEfovSPP1sDSv2XOrUWZ-17">
          <mxGeometry relative="1" as="geometry" />
        </mxCell>
        <mxCell id="uEfovSPP1sDSv2XOrUWZ-22" style="edgeStyle=orthogonalEdgeStyle;rounded=0;orthogonalLoop=1;jettySize=auto;html=1;exitX=0.5;exitY=1;exitDx=0;exitDy=0;entryX=0.5;entryY=0;entryDx=0;entryDy=0;" edge="1" parent="WIyWlLk6GJQsqaUBKTNV-1" source="uEfovSPP1sDSv2XOrUWZ-13" target="uEfovSPP1sDSv2XOrUWZ-15">
          <mxGeometry relative="1" as="geometry">
            <mxPoint x="137.5" y="575" as="targetPoint" />
          </mxGeometry>
        </mxCell>
      </root>
    </mxGraphModel>
  </diagram>
</mxfile>
